<svg>
    <defs>
        <symbol id="icon-arrows-down" viewBox="0 0 30 25" xmlns="http://www.w3.org/2000/svg">
            <path d="M27.553 1.40453C28.2073 0.226832 30 0.691365 30 2.03861V2.03861C30 2.27509 29.9358 2.50713 29.8142 2.70996L17.5 23.25V23.25C16.3107 25.0339 13.6893 25.0339 12.5 23.25V23.25L0.185823 2.70996C0.0642256 2.50713 -1.90735e-06 2.27509 -1.90735e-06 2.03861V2.03861C-1.90735e-06 0.691364 1.79268 0.226832 2.44696 1.40454L12.5 19.5V19.5C13.6893 21.2839 16.3107 21.2839 17.5 19.5V19.5L27.553 1.40453Z"/>
        </symbol>

        <symbol id="icon-x" viewBox="0 0 45 45" xmlns="http://www.w3.org/2000/svg">
            <rect x="10.4792" y="12.6005" width="3" height="31" rx="1.5" transform="rotate(-45 10.4792 12.6005)" />
            <rect x="10.4792" y="32.3995" width="31" height="3" rx="1.5" transform="rotate(-45 10.4792 32.3995)" />
        </symbol>

        <symbol id="icon-arrow-left" viewBox="0 0 25 30" xmlns="http://www.w3.org/2000/svg">
            <path d="M23.5955 27.553C24.7732 28.2073 24.3086 30 22.9614 30C22.7249 30 22.4929 29.9358 22.29 29.8142L1.75 17.5C-0.033947 16.3107 -0.033947 13.6893 1.75 12.5L22.29 0.185823C22.4929 0.0642262 22.7249 -1.90735e-06 22.9614 -1.90735e-06C24.3086 -1.90735e-06 24.7732 1.79268 23.5955 2.44696L5.5 12.5C3.71605 13.6893 3.71605 16.3107 5.5 17.5L23.5955 27.553Z" />
        </symbol>

        <symbol id="icon-arrow-right" viewBox="0 0 25 30" xmlns="http://www.w3.org/2000/svg">
            <path d="M1.40453 2.44696C0.226832 1.79268 0.691365 0 2.03861 0C2.27509 0 2.50713 0.0642278 2.70996 0.185825L23.25 12.5C25.0339 13.6893 25.0339 16.3107 23.25 17.5L2.70996 29.8142C2.50713 29.9358 2.27509 30 2.03861 30C0.691365 30 0.226832 28.2073 1.40454 27.553L19.5 17.5C21.2839 16.3107 21.2839 13.6893 19.5 12.5L1.40453 2.44696Z"/>
        </symbol>

        <symbol id="icon-pointer" viewBox="0 0 30 30" xmlns="http://www.w3.org/2000/svg">
            <path d="M29.9902 15.3756V15.068C29.9902 13.2352 28.3218 11.7442 26.2713 11.7442C25.8082 11.7442 25.3649 11.8209 24.9554 11.9597C24.6075 10.4475 23.1064 9.30672 21.3127 9.30672C20.8256 9.30672 20.3606 9.39167 19.934 9.54456C19.4839 8.14885 17.9893 7.09084 16.2714 7.09084C15.809 7.09084 15.363 7.17076 14.9491 7.31479V3.32383C14.9491 1.491 13.2807 0 11.2302 0C9.17962 0 7.51121 1.491 7.51121 3.32383V13.112C6.86031 12.3691 6.07768 11.7216 5.16926 11.3879C4.15556 11.0156 3.08879 11.0601 2.08385 11.5167C0.235608 12.3567 -0.526365 14.381 0.385193 16.0294L5.00497 24.3852C5.13554 24.6145 8.26624 30 13.9343 30H20.5457C25.7589 30 30 26.1896 30 21.5049L29.9949 15.3756H29.9902ZM20.5459 27.7841H13.9344C9.85151 27.7841 7.30791 23.5388 7.21618 23.3825L2.60797 15.0478C2.28996 14.4727 2.55343 13.7893 3.2078 13.4919C3.56846 13.328 3.88234 13.3113 4.22564 13.437C5.59438 13.9385 6.938 16.3555 7.46295 17.7602L7.86129 18.8325L9.99068 18.159V3.32383C9.99068 2.71284 10.5467 2.21589 11.2303 2.21589C11.914 2.21589 12.47 2.71284 12.47 3.32383V16.1021H12.4925H14.9493H14.9718V10.4885C14.9718 9.87 15.5913 9.30672 16.2716 9.30672C16.976 9.30672 17.5939 9.8245 17.5939 10.4147V12.6306V16.4714H20.0732V12.6306C20.0732 12.0196 20.6292 11.5226 21.3128 11.5226C21.9965 11.5226 22.5525 12.0196 22.5525 12.6306V15.068V17.5055H25.0318V15.068C25.0318 14.457 25.5878 13.9601 26.2715 13.9601C26.9551 13.9601 27.5111 14.457 27.5111 15.068V16.6527H27.5169L27.521 21.5058C27.5209 24.9677 24.3918 27.7841 20.5459 27.7841Z"/>
        </symbol>

        <symbol id="icon-github" viewBox="0 0 98 96" xmlns="http://www.w3.org/2000/svg">
            <path fill-rule="evenodd" clip-rule="evenodd" d="M48.854 0C21.839 0 0 22 0 49.217C0 70.973 13.993 89.389 33.405 95.907C35.832 96.397 36.721 94.848 36.721 93.545C36.721 92.404 36.641 88.493 36.641 84.418C23.051 87.352 20.221 78.551 20.221 78.551C18.037 72.847 14.801 71.381 14.801 71.381C10.353 68.366 15.125 68.366 15.125 68.366C20.059 68.692 22.648 73.418 22.648 73.418C27.015 80.914 34.052 78.796 36.883 77.492C37.287 74.314 38.582 72.114 39.957 70.892C29.118 69.751 17.714 65.514 17.714 46.609C17.714 41.231 19.654 36.831 22.728 33.409C22.243 32.187 20.544 27.134 23.214 20.371C23.214 20.371 27.339 19.067 36.64 25.423C40.6221 24.3457 44.7288 23.7976 48.854 23.793C52.979 23.793 57.184 24.364 61.067 25.423C70.369 19.067 74.494 20.371 74.494 20.371C77.164 27.134 75.464 32.187 74.979 33.409C78.134 36.831 79.994 41.231 79.994 46.609C79.994 65.514 68.59 69.669 57.67 70.892C59.45 72.44 60.986 75.373 60.986 80.018C60.986 86.618 60.906 91.915 60.906 93.544C60.906 94.848 61.796 96.397 64.222 95.908C83.634 89.388 97.627 70.973 97.627 49.217C97.707 22 75.788 0 48.854 0Z"/>
        </symbol>

        <symbol id="icon-at" viewBox="0 0 39 38" xmlns="http://www.w3.org/2000/svg">
            <path d="M20.28 37.72C17.24 37.6933 14.48 37.1867 12 36.2C9.54667 35.24 7.42667 33.8933 5.64 32.16C3.88 30.4267 2.52 28.44 1.56 26.2C0.626667 23.9333 0.16 21.52 0.16 18.96C0.16 16.3467 0.64 13.9067 1.6 11.64C2.58667 9.37333 3.94667 7.38667 5.68 5.68C7.44 3.94667 9.46667 2.6 11.76 1.64C14.0533 0.679999 16.5067 0.199999 19.12 0.199999C21.7333 0.199999 24.1867 0.679999 26.48 1.64C28.7733 2.6 30.7867 3.94667 32.52 5.68C34.28 7.38667 35.64 9.37333 36.6 11.64C37.5867 13.9067 38.08 16.3467 38.08 18.96C38.08 20.4533 37.84 21.84 37.36 23.12C36.9067 24.4 36.1867 25.4267 35.2 26.2C34.2133 26.9733 32.9467 27.36 31.4 27.36C30.04 27.36 28.8667 27 27.88 26.28C26.92 25.56 26.2133 24.5867 25.76 23.36C25.0933 24.56 24.1867 25.5333 23.04 26.28C21.8933 27 20.56 27.36 19.04 27.36C17.4933 27.36 16.08 26.9867 14.8 26.24C13.52 25.4667 12.4933 24.4533 11.72 23.2C10.9733 21.92 10.6 20.5067 10.6 18.96C10.6 17.3867 10.9733 15.96 11.72 14.68C12.4933 13.4 13.52 12.3867 14.8 11.64C16.08 10.8667 17.4933 10.48 19.04 10.48C20.6133 10.48 22.04 10.8667 23.32 11.64C24.6 12.3867 25.6267 13.4 26.4 14.68C27.1733 15.96 27.56 17.3867 27.56 18.96V20.68C27.56 21.5067 27.7333 22.24 28.08 22.88C28.4267 23.52 28.88 24.0133 29.44 24.36C30.0267 24.7067 30.6533 24.88 31.32 24.88C32.36 24.88 33.1867 24.6 33.8 24.04C34.4133 23.4533 34.84 22.7067 35.08 21.8C35.3467 20.8933 35.48 19.9467 35.48 18.96C35.48 16.72 35.0533 14.6267 34.2 12.68C33.3733 10.7067 32.2133 8.98667 30.72 7.52C29.2267 6.02667 27.48 4.85333 25.48 4C23.5067 3.14667 21.3867 2.72 19.12 2.72C16.8533 2.72 14.7333 3.14667 12.76 4C10.7867 4.85333 9.04 6.02667 7.52 7.52C6.02667 8.98667 4.85333 10.7067 4 12.68C3.17333 14.6267 2.76 16.72 2.76 18.96C2.76 21.1467 3.16 23.2133 3.96 25.16C4.78667 27.1067 5.96 28.8267 7.48 30.32C9.02667 31.8133 10.88 32.9867 13.04 33.84C15.2 34.6933 17.6133 35.1333 20.28 35.16H21.36V37.72H20.28ZM19.04 24.88C20.2133 24.88 21.24 24.6 22.12 24.04C23 23.48 23.6933 22.7467 24.2 21.84C24.7067 20.9333 24.96 19.9733 24.96 18.96C24.96 17.92 24.7067 16.9467 24.2 16.04C23.6933 15.1333 23 14.4 22.12 13.84C21.24 13.2533 20.2133 12.96 19.04 12.96C17.8933 12.96 16.88 13.2533 16 13.84C15.12 14.4 14.4267 15.1333 13.92 16.04C13.44 16.9467 13.2 17.92 13.2 18.96C13.2 19.9733 13.44 20.9333 13.92 21.84C14.4267 22.7467 15.12 23.48 16 24.04C16.88 24.6 17.8933 24.88 19.04 24.88Z"/>
        </symbol>
    </defs>
</svg>