<svg>
    <defs>
        <symbol id="icon-arrows-down" viewBox="0 0 30 25" xmlns="http://www.w3.org/2000/svg">
            <path d="M27.553 1.40453C28.2073 0.226832 30 0.691365 30 2.03861V2.03861C30 2.27509 29.9358 2.50713 29.8142 2.70996L17.5 23.25V23.25C16.3107 25.0339 13.6893 25.0339 12.5 23.25V23.25L0.185823 2.70996C0.0642256 2.50713 -1.90735e-06 2.27509 -1.90735e-06 2.03861V2.03861C-1.90735e-06 0.691364 1.79268 0.226832 2.44696 1.40454L12.5 19.5V19.5C13.6893 21.2839 16.3107 21.2839 17.5 19.5V19.5L27.553 1.40453Z"/>
        </symbol>

        <symbol id="icon-x" viewBox="0 0 45 45" xmlns="http://www.w3.org/2000/svg">
            <rect x="10.4792" y="12.6005" width="3" height="31" rx="1.5" transform="rotate(-45 10.4792 12.6005)" />
            <rect x="10.4792" y="32.3995" width="31" height="3" rx="1.5" transform="rotate(-45 10.4792 32.3995)" />
        </symbol>

        <symbol id="icon-arrow-left" viewBox="0 0 25 30" xmlns="http://www.w3.org/2000/svg">
            <path d="M23.5955 27.553C24.7732 28.2073 24.3086 30 22.9614 30C22.7249 30 22.4929 29.9358 22.29 29.8142L1.75 17.5C-0.033947 16.3107 -0.033947 13.6893 1.75 12.5L22.29 0.185823C22.4929 0.0642262 22.7249 -1.90735e-06 22.9614 -1.90735e-06C24.3086 -1.90735e-06 24.7732 1.79268 23.5955 2.44696L5.5 12.5C3.71605 13.6893 3.71605 16.3107 5.5 17.5L23.5955 27.553Z" />
        </symbol>

        <symbol id="icon-arrow-right" viewBox="0 0 25 30" xmlns="http://www.w3.org/2000/svg">
            <path d="M1.40453 2.44696C0.226832 1.79268 0.691365 0 2.03861 0C2.27509 0 2.50713 0.0642278 2.70996 0.185825L23.25 12.5C25.0339 13.6893 25.0339 16.3107 23.25 17.5L2.70996 29.8142C2.50713 29.9358 2.27509 30 2.03861 30C0.691365 30 0.226832 28.2073 1.40454 27.553L19.5 17.5C21.2839 16.3107 21.2839 13.6893 19.5 12.5L1.40453 2.44696Z"/>
        </symbol>

        <symbol id="icon-pointer" viewBox="0 0 30 30" xmlns="http://www.w3.org/2000/svg">
            <path d="M29.9902 15.3756V15.068C29.9902 13.2352 28.3218 11.7442 26.2713 11.7442C25.8082 11.7442 25.3649 11.8209 24.9554 11.9597C24.6075 10.4475 23.1064 9.30672 21.3127 9.30672C20.8256 9.30672 20.3606 9.39167 19.934 9.54456C19.4839 8.14885 17.9893 7.09084 16.2714 7.09084C15.809 7.09084 15.363 7.17076 14.9491 7.31479V3.32383C14.9491 1.491 13.2807 0 11.2302 0C9.17962 0 7.51121 1.491 7.51121 3.32383V13.112C6.86031 12.3691 6.07768 11.7216 5.16926 11.3879C4.15556 11.0156 3.08879 11.0601 2.08385 11.5167C0.235608 12.3567 -0.526365 14.381 0.385193 16.0294L5.00497 24.3852C5.13554 24.6145 8.26624 30 13.9343 30H20.5457C25.7589 30 30 26.1896 30 21.5049L29.9949 15.3756H29.9902ZM20.5459 27.7841H13.9344C9.85151 27.7841 7.30791 23.5388 7.21618 23.3825L2.60797 15.0478C2.28996 14.4727 2.55343 13.7893 3.2078 13.4919C3.56846 13.328 3.88234 13.3113 4.22564 13.437C5.59438 13.9385 6.938 16.3555 7.46295 17.7602L7.86129 18.8325L9.99068 18.159V3.32383C9.99068 2.71284 10.5467 2.21589 11.2303 2.21589C11.914 2.21589 12.47 2.71284 12.47 3.32383V16.1021H12.4925H14.9493H14.9718V10.4885C14.9718 9.87 15.5913 9.30672 16.2716 9.30672C16.976 9.30672 17.5939 9.8245 17.5939 10.4147V12.6306V16.4714H20.0732V12.6306C20.0732 12.0196 20.6292 11.5226 21.3128 11.5226C21.9965 11.5226 22.5525 12.0196 22.5525 12.6306V15.068V17.5055H25.0318V15.068C25.0318 14.457 25.5878 13.9601 26.2715 13.9601C26.9551 13.9601 27.5111 14.457 27.5111 15.068V16.6527H27.5169L27.521 21.5058C27.5209 24.9677 24.3918 27.7841 20.5459 27.7841Z"/>
        </symbol>
    </defs>
</svg>