<svg>
    <defs>
        <symbol id="icon-arrows-down" viewBox="0 0 30 25" xmlns="http://www.w3.org/2000/svg">
            <path d="M27.553 1.40453C28.2073 0.226832 30 0.691365 30 2.03861V2.03861C30 2.27509 29.9358 2.50713 29.8142 2.70996L17.5 23.25V23.25C16.3107 25.0339 13.6893 25.0339 12.5 23.25V23.25L0.185823 2.70996C0.0642256 2.50713 -1.90735e-06 2.27509 -1.90735e-06 2.03861V2.03861C-1.90735e-06 0.691364 1.79268 0.226832 2.44696 1.40454L12.5 19.5V19.5C13.6893 21.2839 16.3107 21.2839 17.5 19.5V19.5L27.553 1.40453Z"/>
        </symbol>

        <symbol id="icon-x" viewBox="0 0 45 45" xmlns="http://www.w3.org/2000/svg">
            <rect x="10.4792" y="12.6005" width="3" height="31" rx="1.5" transform="rotate(-45 10.4792 12.6005)" />
            <rect x="10.4792" y="32.3995" width="31" height="3" rx="1.5" transform="rotate(-45 10.4792 32.3995)" />
        </symbol>

        <symbol id="icon-arrow-left" viewBox="0 0 25 30" xmlns="http://www.w3.org/2000/svg">
            <path d="M23.5955 27.553C24.7732 28.2073 24.3086 30 22.9614 30C22.7249 30 22.4929 29.9358 22.29 29.8142L1.75 17.5C-0.033947 16.3107 -0.033947 13.6893 1.75 12.5L22.29 0.185823C22.4929 0.0642262 22.7249 -1.90735e-06 22.9614 -1.90735e-06C24.3086 -1.90735e-06 24.7732 1.79268 23.5955 2.44696L5.5 12.5C3.71605 13.6893 3.71605 16.3107 5.5 17.5L23.5955 27.553Z" />
        </symbol>

        <symbol id="icon-arrow-right" viewBox="0 0 25 30" xmlns="http://www.w3.org/2000/svg">
            <path d="M1.40453 2.44696C0.226832 1.79268 0.691365 0 2.03861 0C2.27509 0 2.50713 0.0642278 2.70996 0.185825L23.25 12.5C25.0339 13.6893 25.0339 16.3107 23.25 17.5L2.70996 29.8142C2.50713 29.9358 2.27509 30 2.03861 30C0.691365 30 0.226832 28.2073 1.40454 27.553L19.5 17.5C21.2839 16.3107 21.2839 13.6893 19.5 12.5L1.40453 2.44696Z"/>
        </symbol>
    </defs>
</svg>